# xmcd
#
# Track frame offsets: 
#        150
#        14612
#        32927
#        54498
#        71675
#        88344
#        108157
#        122811
#        141313
#        159731
#
# Disc length: 2322 seconds
#
# Revision: 0
# Processed by: cddbd v1.5.2PL0 Copyright (c) Steve Scherf et al.
# Submitted via: ExactAudioCopy v1.3
#
DISCID=9109100a
DTITLE=96猫 - O2O [Disc 2]
DYEAR=2017
DGENRE=
TTITLE0=Unknown Artist - Unknown Title
TTITLE1=01. Track01  03:13
TTITLE2=02. Track02  04:04
TTITLE3=03. Track03  04:48
TTITLE4=04. Track04  03:49
TTITLE5=05. Track05  03:42
TTITLE6=06. Track06  04:24
TTITLE7=07. Track07  03:15
TTITLE8=08. Track08  04:07
TTITLE9=09. Track09  04:06
EXTD=
EXTT0=
EXTT1=
EXTT2=
EXTT3=
EXTT4=
EXTT5=
EXTT6=
EXTT7=
EXTT8=
EXTT9=
PLAYORDER=
